<?xml version="1.0" encoding="UTF-8" standalone="no"?>
<!-- Created with Inkscape (http://www.inkscape.org/) -->

<svg
   version="1.1"
   id="svg2"
   xml:space="preserve"
   width="624.76001"
   height="367.76001"
   viewBox="0 0 624.76001 367.76001"
   sodipodi:docname="logo_AR_blue.eps"
   xmlns:inkscape="http://www.inkscape.org/namespaces/inkscape"
   xmlns:sodipodi="http://sodipodi.sourceforge.net/DTD/sodipodi-0.dtd"
   xmlns="http://www.w3.org/2000/svg"
   xmlns:svg="http://www.w3.org/2000/svg"><defs
     id="defs6" /><sodipodi:namedview
     id="namedview4"
     pagecolor="#ffffff"
     bordercolor="#666666"
     borderopacity="1.0"
     inkscape:pageshadow="2"
     inkscape:pageopacity="0.0"
     inkscape:pagecheckerboard="0" /><g
     id="g8"
     inkscape:groupmode="layer"
     inkscape:label="ink_ext_XXXXXX"
     transform="matrix(1.3333333,0,0,-1.3333333,0,367.76)"><g
       id="g10"
       transform="scale(0.1)"><path
         d="m 391.063,1582.17 v 455.14 L 0,2263.09 v -906.7 l 391.063,225.78"
         style="fill:#4879c6;fill-opacity:1;fill-rule:nonzero;stroke:none"
         id="path12" /><path
         d="m 821.863,2758.19 v -450.24 l 387.777,-223.62 389.95,225.14 -777.727,448.72"
         style="fill:#4879c6;fill-opacity:1;fill-rule:nonzero;stroke:none"
         id="path14" /><path
         d="m 393.555,2084.42 386.261,222.74 v 449.88 L 3.91797,2309.38 393.555,2084.42"
         style="fill:#4879c6;fill-opacity:1;fill-rule:nonzero;stroke:none"
         id="path16" /><path
         d="M 779.816,1310.23 393.375,1534.96 10.0156,1313.63 779.816,865.891 v 444.339"
         style="fill:#4879c6;fill-opacity:1;fill-rule:nonzero;stroke:none"
         id="path18" /><path
         d="m 1211.97,2037.13 v -454.77 l 391.7,-226.15 v 907.07 l -391.7,-226.15"
         style="fill:#4879c6;fill-opacity:1;fill-rule:nonzero;stroke:none"
         id="path20" /><path
         d="m 2032.73,1582.17 v 455.14 l -391.06,225.78 v -906.7 l 391.06,225.78"
         style="fill:#4879c6;fill-opacity:1;fill-rule:nonzero;stroke:none"
         id="path22" /><path
         d="m 2463.53,2758.19 v -450.24 l 387.78,-223.62 389.95,225.14 -777.73,448.72"
         style="fill:#4879c6;fill-opacity:1;fill-rule:nonzero;stroke:none"
         id="path24" /><path
         d="m 2035.22,2084.42 386.26,222.74 v 449.88 l -775.9,-447.66 389.64,-224.96"
         style="fill:#4879c6;fill-opacity:1;fill-rule:nonzero;stroke:none"
         id="path26" /><path
         d="m 1540.53,746.512 -95.05,189.84 h -13.29 l -95.05,-189.84 z m -61.33,233.226 183.97,-362.277 h -58.76 l -41.4,80.398 h -249.38 l -40.87,-80.398 h -58.77 l 183.96,362.277 h 81.25"
         style="fill:#0d0906;fill-opacity:1;fill-rule:nonzero;stroke:none"
         id="path28" /><path
         d="m 1755.15,797.27 h 230.97 c 14.99,0 26.92,5.339 35.78,16 8.85,10.64 13.28,27.539 13.28,50.628 0,23.122 -4.34,40.071 -13.03,50.922 -8.69,10.84 -20.87,16.27 -36.54,16.27 h -230.46 z m -52.13,-179.809 v 362.277 h 285.15 c 30.99,0 55.26,-9.578 72.82,-28.707 17.54,-19.133 26.32,-48.152 26.32,-87.133 0,-38.968 -8.95,-67.918 -26.83,-86.867 -17.89,-18.941 -42.67,-28.41 -74.36,-28.41 h -230.97 v -131.16 h -52.13"
         style="fill:#0d0906;fill-opacity:1;fill-rule:nonzero;stroke:none"
         id="path30" /><path
         d="m 2200.76,797.27 h 230.97 c 15,0 26.92,5.339 35.78,16 8.85,10.64 13.28,27.539 13.28,50.628 0,23.122 -4.35,40.071 -13.03,50.922 -8.69,10.84 -20.87,16.27 -36.54,16.27 h -230.46 z m -52.13,-179.809 v 362.277 h 285.15 c 30.99,0 55.27,-9.578 72.82,-28.707 17.54,-19.133 26.32,-48.152 26.32,-87.133 0,-38.968 -8.95,-67.918 -26.84,-86.867 -17.88,-18.941 -42.67,-28.41 -74.35,-28.41 h -230.97 v -131.16 h -52.13"
         style="fill:#0d0906;fill-opacity:1;fill-rule:nonzero;stroke:none"
         id="path32" /><path
         d="m 2591.16,979.738 h 52.13 V 666.109 h 267.76 v -48.648 h -319.89 v 362.277"
         style="fill:#0d0906;fill-opacity:1;fill-rule:nonzero;stroke:none"
         id="path34" /><path
         d="m 3058.32,617.461 h -52.13 v 362.277 h 52.13 V 617.461"
         style="fill:#0d0906;fill-opacity:1;fill-rule:nonzero;stroke:none"
         id="path36" /><path
         d="m 3151.33,979.738 h 334.72 V 931.09 H 3203.46 V 825.301 h 272.87 v -48.66 H 3203.46 V 666.109 h 282.59 v -48.648 h -334.72 v 362.277"
         style="fill:#0d0906;fill-opacity:1;fill-rule:nonzero;stroke:none"
         id="path38" /><path
         d="m 3607.99,666.109 h 240.7 c 28.27,0 47.28,8.922 56.97,26.75 9.73,17.84 14.55,53.09 14.55,105.731 0,52.301 -4.95,87.43 -14.8,105.469 -9.9,18.011 -28.78,27.031 -56.72,27.031 h -240.7 z m -52.11,313.629 h 293.31 c 43.29,0 72.73,-8.308 88.4,-24.898 23.17,-24.731 34.77,-76.801 34.77,-156.25 0,-79.09 -11.6,-131 -34.77,-155.719 -15.67,-16.941 -45.11,-25.41 -88.4,-25.41 h -293.31 v 362.277"
         style="fill:#0d0906;fill-opacity:1;fill-rule:nonzero;stroke:none"
         id="path40" /><path
         d="m 1290.64,185.109 h 240.28 c 19.04,0 32.98,3.36 41.83,10.09 13.27,10.27 19.9,29.18 19.9,56.821 0,27.609 -6.47,46.359 -19.39,56.269 -9.18,7.082 -23.3,10.633 -42.34,10.633 h -240.28 z m -52.12,182.469 h 313.76 c 29.64,0 52.46,-10.519 68.47,-31.527 16.01,-21 24.03,-48.969 24.03,-83.922 0,-30 -4.61,-52.41 -13.81,-67.231 -6.47,-10.589 -16.86,-19.066 -31.17,-25.418 12.6,-5.308 22.49,-12.199 29.65,-20.671 10.21,-12.02 15.33,-26.84 15.33,-44.5199 V 5.28906 h -52.13 V 94.5117 c 0,12.0273 -5.53,22.0193 -16.58,30.0003 -11.05,7.968 -24.4,11.937 -40.05,11.937 H 1290.64 V 5.28906 h -52.12 V 367.578"
         style="fill:#0d0906;fill-opacity:1;fill-rule:nonzero;stroke:none"
         id="path42" /><path
         d="m 1924.63,48.6602 c 80.38,0 127.75,6.1718 142.06,18.539 14.3,12.3594 21.46,51.9298 21.46,118.7108 0,67.11 -7.07,106.84 -21.21,119.211 -14.15,12.359 -61.57,18.559 -142.31,18.559 -80.76,0 -128.19,-6.2 -142.32,-18.559 -14.14,-12.371 -21.21,-52.101 -21.21,-119.211 0,-66.43 7.15,-105.8983 21.46,-118.4491 14.31,-12.539 61.66,-18.8007 142.07,-18.8007 z M 1924.63,0 c -72.57,0 -123.34,4.85938 -152.29,14.5508 -28.96,9.7109 -47.36,28.0976 -55.19,55.2578 -5.46,18.6719 -8.18,57.3124 -8.18,115.8204 0,59.59 2.56,98.199 7.67,115.84 7.83,27.5 26.4,46.179 55.7,56.062 29.29,9.86 80.05,14.801 152.29,14.801 72.55,0 123.23,-4.863 152.02,-14.543 28.78,-9.711 47.27,-28.301 55.44,-55.801 5.45,-18.679 8.19,-57.476 8.19,-116.359 0,-59.231 -2.56,-97.6485 -7.68,-115.2774 -7.84,-27.5 -26.23,-46.0899 -55.19,-55.8008 C 2048.45,4.85938 1997.52,0 1924.63,0"
         style="fill:#0d0906;fill-opacity:1;fill-rule:nonzero;stroke:none"
         id="path44" /><path
         d="M 2264.97,167.129 V 53.9492 h 227.92 c 19.75,0 34.66,5.211 44.71,15.6016 10.04,10.3984 15.07,24.0586 15.07,40.9882 0,16.582 -5.1,30.133 -15.33,40.723 -10.21,10.558 -25.03,15.867 -44.45,15.867 z m 274.93,97.562 c 0,16.649 -4.08,29.418 -12.24,38.27 -9.87,10.621 -25.51,15.961 -46.93,15.961 H 2264.97 V 215.781 h 215.76 c 22.11,0 37.49,3.981 46.16,11.957 8.67,7.973 13.01,20.293 13.01,36.953 z m 64.89,-153.632 c 0,-35.6098 -9.44,-62.1293 -28.36,-79.5785 C 2557.54,14.0313 2529.85,5.28906 2493.4,5.28906 H 2212.85 V 367.578 h 268.28 c 35.77,0 63.18,-8.84 82.27,-26.539 19.09,-17.68 28.62,-43.141 28.62,-76.391 0,-36.41 -13.12,-59.757 -39.35,-70.019 14.99,-5.297 26.92,-14.109 35.77,-26.449 10.9,-15.16 16.35,-34.2 16.35,-57.121"
         style="fill:#0d0906;fill-opacity:1;fill-rule:nonzero;stroke:none"
         id="path46" /><path
         d="m 2886.35,48.6602 c 80.39,0 127.76,6.1718 142.06,18.539 14.31,12.3594 21.46,51.9298 21.46,118.7108 0,67.11 -7.07,106.84 -21.2,119.211 -14.14,12.359 -61.57,18.559 -142.32,18.559 -80.75,0 -128.18,-6.2 -142.31,-18.559 -14.14,-12.371 -21.21,-52.101 -21.21,-119.211 0,-66.43 7.15,-105.8983 21.45,-118.4491 14.32,-12.539 61.66,-18.8007 142.07,-18.8007 z M 2886.35,0 c -72.56,0 -123.33,4.85938 -152.28,14.5508 -28.96,9.7109 -47.36,28.0976 -55.19,55.2578 -5.46,18.6719 -8.18,57.3124 -8.18,115.8204 0,59.59 2.56,98.199 7.68,115.84 7.82,27.5 26.39,46.179 55.69,56.062 29.3,9.86 80.05,14.801 152.28,14.801 72.56,0 123.24,-4.863 152.03,-14.543 28.78,-9.711 47.27,-28.301 55.44,-55.801 5.44,-18.679 8.18,-57.476 8.18,-116.359 0,-59.231 -2.55,-97.6485 -7.67,-115.2774 -7.84,-27.5 -26.23,-46.0899 -55.18,-55.8008 C 3010.18,4.85938 2959.24,0 2886.35,0"
         style="fill:#0d0906;fill-opacity:1;fill-rule:nonzero;stroke:none"
         id="path48" /><path
         d="m 3158.1,367.578 h 385.38 V 318.922 H 3377.11 V 5.28906 h -52.12 V 318.922 H 3158.1 v 48.656"
         style="fill:#0d0906;fill-opacity:1;fill-rule:nonzero;stroke:none"
         id="path50" /><path
         d="m 3667.88,5.28906 h -52.13 V 367.578 h 52.13 V 5.28906"
         style="fill:#0d0906;fill-opacity:1;fill-rule:nonzero;stroke:none"
         id="path52" /><path
         d="m 3823.46,185.91 c 0,-66.07 7.26,-105.4686 21.78,-118.1717 14.47,-12.707 58.91,-19.0781 133.22,-19.0781 69.27,0 111.5,3.6992 126.72,11.1015 17.8,8.8203 26.69,32.6172 26.69,71.3983 h 55.45 c 0,-57.4803 -12.26,-93.6912 -36.68,-108.6717 C 4126.16,7.48828 4068.76,0 3978.46,0 3886.75,0 3828.73,10.582 3804.43,31.7383 3780.13,52.8984 3768,104.199 3768,185.629 c 0,81.801 12.05,133.359 36.17,154.711 24.12,21.32 82.18,31.992 174.29,31.992 90.65,0 148.15,-7.332 172.44,-21.973 24.24,-14.648 36.42,-50.871 36.42,-108.668 h -55.45 c 0,38.797 -8.19,62.149 -24.47,70.079 -16.34,7.921 -59.32,11.91 -128.94,11.91 -74.66,0 -119.19,-6.282 -133.48,-18.828 -14.35,-12.551 -21.52,-52.192 -21.52,-118.942"
         style="fill:#0d0906;fill-opacity:1;fill-rule:nonzero;stroke:none"
         id="path54" /><path
         d="m 4481.97,207.859 c 85.86,0 139.9,-4.949 162.18,-14.828 27.66,-12.332 41.5,-41.941 41.5,-88.832 0,-44.4373 -16.71,-73.5193 -50.12,-87.2693 C 4608.24,5.62891 4552.92,0 4469.58,0 4379.4,0 4321.39,9.69922 4295.54,29.0898 4275.77,43.8984 4265.9,76.1602 4265.9,125.871 h 54.97 c 0,-34.1913 7.71,-55.6093 23.17,-64.2616 15.43,-8.6289 57.46,-12.9492 126.06,-12.9492 67.18,0 110.75,3.1796 130.68,9.5312 19.93,6.3477 29.91,21.668 29.91,46.0076 0,24.653 -7.46,40.012 -22.37,46 -14.91,5.992 -57.02,9.012 -126.35,9.012 -84.79,0 -141.7,10.051 -170.82,30.121 -22.28,15.168 -33.39,42.496 -33.39,81.996 0,42.641 13.37,70.231 40.15,82.762 26.74,12.5 81.42,18.762 164.06,18.762 82.26,0 136.33,-9.68 162.18,-29.071 20.48,-15.543 30.71,-45.84 30.71,-90.972 h -53.87 c 0,31.25 -8.08,50.972 -24.25,59.14 -16.18,8.153 -54.41,12.25 -114.77,12.25 -51.72,0 -83.52,-0.719 -95.37,-2.109 -35.92,-4.258 -53.9,-21.102 -53.9,-50.488 0,-24.793 9.72,-41.622 29.12,-50.461 19.38,-8.871 59.44,-13.282 120.15,-13.282"
         style="fill:#0d0906;fill-opacity:1;fill-rule:nonzero;stroke:none"
         id="path56" /></g></g></svg>
