<?xml version="1.0" encoding="UTF-8" standalone="no"?>
<!-- Created with Inkscape (http://www.inkscape.org/) -->

<svg
   version="1.1"
   id="svg75"
   width="611.44312"
   height="1002.4724"
   viewBox="0 0 611.44311 1002.4724"
   sodipodi:docname="3a.svg"
   inkscape:version="1.2.2 (732a01da63, 2022-12-09, custom)"
   xmlns:inkscape="http://www.inkscape.org/namespaces/inkscape"
   xmlns:sodipodi="http://sodipodi.sourceforge.net/DTD/sodipodi-0.dtd"
   xmlns="http://www.w3.org/2000/svg"
   xmlns:svg="http://www.w3.org/2000/svg">
  <defs
     id="defs79" />
  <sodipodi:namedview
     id="namedview77"
     pagecolor="#ffffff"
     bordercolor="#000000"
     borderopacity="0.25"
     inkscape:showpageshadow="2"
     inkscape:pageopacity="0.0"
     inkscape:pagecheckerboard="0"
     inkscape:deskcolor="#d1d1d1"
     showgrid="false"
     inkscape:zoom="0.81083775"
     inkscape:cx="295.99017"
     inkscape:cy="513.66627"
     inkscape:window-width="1846"
     inkscape:window-height="1016"
     inkscape:window-x="0"
     inkscape:window-y="0"
     inkscape:window-maximized="1"
     inkscape:current-layer="svg75" />
  <g
     inkscape:groupmode="layer"
     id="layer1"
     inkscape:label="Layer 1">
    <path
       style="fill:#000000;stroke-width:1.06667"
       d="m 157.67931,987.80088 c -7.40359,-1.912 -14.07205,-5.4157 -14.07205,-7.3937 0,-0.501 1.40884,-5.0529 3.13077,-10.1155 3.50746,-10.3123 7.17553,-17.1032 12.33032,-22.8281 4.0908,-4.5431 8.88937,-18.4919 12.19564,-35.45092 6.28649,-32.24562 8.28379,-88.84549 3.89839,-110.47299 -1.91477,-9.44312 -5.93298,-23.12083 -6.59722,-22.45658 -0.73402,0.73402 -9.39663,28.68135 -15.34719,49.51312 -12.89601,45.14644 -14.95554,69.48584 -6.81229,80.50694 l 2.63046,3.56006 -4.97021,0.72909 c -7.97812,1.17033 -9.67648,3.45072 -14.94822,20.07088 -1.02346,3.2267 -2.142,11.1001 -2.48564,17.4966 l -0.62481,11.6299 -4.26667,1.5072 c -4.27635,1.5106 -7.49776,1.4524 -29.86667,-0.5402 l -8.53333,-0.7601 0.0805,-4.2667 c 0.10068,-5.336 6.90369,-20.0799 14.13881,-30.6426 4.4766,-6.5355 6.43552,-11.2017 12.43647,-29.62407 12.18744,-37.41426 19.53073,-68.87362 24.2476,-103.87888 3.0908,-22.93786 3.32697,-68.80743 0.45859,-89.06794 -3.4162,-24.12989 -11.42808,-57.95875 -15.77369,-66.6019 -1.28319,-2.55217 -8.7493,-10.82251 -17.49962,-19.38462 C 90.44908,608.58588 84.47414,601.76847 80.13099,595.02856 66.80076,574.34208 54.81883,544.2502 49.03379,516.92987 c -2.73938,-12.93693 -2.93033,-15.5116 -2.848,-38.4 0.091,-25.30121 0.49374,-28.52099 6.67077,-53.33334 0.5842,-2.34667 1.57013,-17.46667 2.19095,-33.6 1.22012,-31.70738 2.7567,-51.57505 7.02223,-90.79576 l 2.74021,-25.19574 -4.87147,-8.80696 c -6.29132,-11.37386 -13.58234,-21.55648 -17.79657,-24.85461 -2.98004,-2.33224 -3.55457,-3.74116 -5.36072,-13.14623 -1.74135,-9.06766 -1.87106,-12.08178 -0.93178,-21.65263 0.60014,-6.11522 1.09117,-11.96173 1.09117,-12.99224 0,-1.2839 -2.60202,-3.12512 -8.26667,-5.84959 -15.75415,-7.57712 -26.2759898,-21.74183 -32.4163498,-43.63958 -4.12153,-14.69816 -3.16347,-34.21053 3.02529997,-61.61526 l 1.72167003,-7.62377 4.1903,4.75285 C 20.97567,98.07639 33.99967,116.19348 48.11123,139.87603 c 5.01153,8.41055 9.25597,15.436 9.43209,15.61212 0.17611,0.17611 4.59405,-5.42746 9.81765,-12.45239 6.31033,-8.4864 10.17594,-12.77257 11.51932,-12.77257 1.49546,0 1.82983,-0.48601 1.28429,-1.86667 C 78.53194,124.26464 70.98554,90.46395 68.7931,77.46318 65.13148,55.75032 65.34516,30.74367 69.39924,6.5298487 c 1.71893,-10.266667 3.25655,-18.8442857 3.41693,-19.0613747 0.16038,-0.217089 2.03369,-0.06789 4.16291,0.331554 l 3.87131,0.726262 -0.71308,34.868447 C 79.3842,60.22047 80.03611,68.53286 84.46946,78.63281 l 1.82766,4.16371 0.81983,-3.62714 c 0.45091,-1.99493 1.42639,-10.97454 2.16773,-19.9547 1.39826,-16.93761 2.29442,-19.31718 6.08966,-16.1699 2.97909,2.47046 4.47869,8.06563 5.58906,20.85332 0.9088,10.46639 0.81652,13.87957 -0.5325,19.69648 -0.8975,3.86992 -1.7311,12.4735 -1.85244,19.11908 -0.18525,10.14524 0.17895,13.32299 2.27117,19.81619 l 2.49181,7.73334 h 6.15042 c 6.11298,0 6.16011,-0.0243 7.74266,-4 4.17313,-10.48366 4.96841,-28.29484 1.84554,-41.33334 -2.83373,-11.8313 -0.081,-37.67488 4.40634,-41.3684 4.63362,-3.81391 5.03858,-2.52814 7.31345,23.22107 0.67311,7.61896 1.45624,14.08506 1.74028,14.36911 0.83752,0.83751 2.44237,-2.24896 4.13636,-7.95511 3.0695,-10.33955 3.65418,-23.41488 2.42045,-54.128225 -0.65384,-16.2771893 -0.88269,-29.901004 -0.50855,-30.275145 0.37414,-0.37414 2.49644,-0.736441 4.71622,-0.805112 3.96722,-0.12273 4.04154,-0.05218 4.36269,4.1418107 0.17969,2.346666 1.49969,11.136086 2.93333,19.5320453 5.18871,30.387126 2.89368,59.649466 -8.14665,103.872236 -3.6878,14.77175 -3.68473,14.72906 -1.06211,14.72906 3.02633,0 7.81026,5.30414 13.94663,15.46323 2.99341,4.95572 5.94177,9.31896 6.55194,9.69605 1.70505,1.05379 9.00452,-6.67226 14.7002,-15.55928 2.81995,-4.4 9.34054,-15.44 14.49022,-24.53334 9.10268,-16.07356 16.89671,-28.166 22.32438,-34.63621 l 2.65884,-3.16954 3.16084,3.02828 c 1.73847,1.66555 4.27568,5.49185 5.63825,8.50288 2.32455,5.13679 2.47549,6.75803 2.44623,26.27459 -0.0274,18.31653 -0.32451,21.88254 -2.48803,29.86667 -5.97066,22.03382 -19.58843,38.47861 -37.64669,45.46206 -6.23556,2.4114 -6.38287,2.61034 -5.07058,6.84763 0.62859,2.02967 1.08185,10.83362 1.00724,19.56432 l -0.13563,15.87402 -5.25766,6.04485 c -6.37432,7.32871 -15.98063,23.03573 -15.96914,26.11071 0.004,1.22637 1.92459,13.67551 4.26667,27.66477 3.33581,19.92476 4.25876,28.24378 4.2603,38.4 l 0.002,12.96498 15.80896,16 c 9.33546,9.44826 18.26041,17.45571 21.79562,19.55499 7.93441,4.71162 18.92709,9.1181 27.78967,11.13967 6.93972,1.58295 7.71619,1.54174 21.30204,-1.13066 12.39843,-2.43883 16.73832,-2.77324 35.96645,-2.77142 20.06924,0.002 22.6939,0.22502 31.93033,2.71438 l 10.06366,2.71231 7.53634,-1.95273 c 11.00576,-2.85169 36.62208,-8.00953 50.73634,-10.21577 9.54487,-1.49198 18.42028,-1.90908 40,-1.87978 36.35468,0.0494 37.53364,0.31639 53.86666,12.20111 40.17059,29.23012 51.49011,38.81494 65.35311,55.33785 l 7.82056,9.32108 2.91725,15.23207 c 6.04585,31.56758 7.93271,56.50653 5.67976,75.07024 -0.98477,8.11426 -1.53472,8.45208 -8.21317,5.04499 l -4.22435,-2.15501 0.0779,21.62168 c 0.0848,23.53152 0.47689,27.21805 4.52024,42.49573 3.76744,14.23519 5.04089,24.36593 5.62215,44.72595 l 0.50246,17.6 7.42361,18.46325 c 10.11177,25.14901 15.18962,32.45261 26.32354,37.86189 3.575,1.73687 4.43706,2.6719 4.06253,4.40645 -0.26147,1.21096 -1.25133,7.72175 -2.19969,14.46841 -2.26171,16.08984 -5.79125,36.32254 -11.81591,67.73334 -4.86156,25.34681 -4.90376,25.75824 -4.26687,41.6 0.91198,22.6838 4.11076,32.67258 14.10664,44.05071 2.73033,3.10788 4.71379,5.90115 4.40769,6.20726 -0.30611,0.30611 -2.42438,-0.003 -4.70729,-0.68703 -9.45976,-2.83421 -12.65255,0.63343 -16.77664,18.22096 -2.13965,9.1247 -2.74699,14.5152 -2.74699,24.3813 v 12.6666 l -6.66667,2.6645 c -5.46168,2.183 -29.90147,9.2957 -31.94044,9.2957 -0.31004,0 -0.33433,-1.2 -0.054,-2.6667 0.28037,-1.4666 0.1875,-2.6666 -0.20639,-2.6666 -0.39388,0 -4.12096,1.4488 -8.28239,3.2197 -4.16144,1.7708 -7.81513,2.9708 -8.11932,2.6667 -1.33017,-1.3302 -0.36168,-10.0269 1.60584,-14.4198 1.18243,-2.64 5.20798,-8.88 8.94566,-13.8666 15.78382,-21.0581 22.05429,-36.74661 26.00319,-65.05911 1.80283,-12.92575 3.29871,-38.62276 4.74552,-81.52133 l 0.93243,-27.64706 -6.89605,-7.90714 c -8.35478,-9.57973 -14.77716,-19.34818 -29.21093,-44.42985 -10.28118,-17.86568 -11.26977,-19.20497 -15.32335,-20.75922 -7.80863,-2.99405 -24.49012,-11.66116 -29.93314,-15.55222 l -5.33334,-3.81263 -0.82594,7.74425 c -0.45427,4.25935 -1.58189,14.46427 -2.50582,22.6776 -0.92394,8.21334 -1.93376,17.21781 -2.24405,20.00995 -0.53917,4.85153 -0.35302,5.30235 4.19865,10.16847 l 4.76285,5.09186 0.65127,11.50077 0.65129,11.50077 -8.11546,14.06409 c -18.68996,32.38973 -30.77027,63.09027 -36.54185,92.8664 -2.29633,11.847 -4.2976,28.78102 -4.2976,36.36478 v 4.85116 l -5.68625,-3.20912 c -11.9463,-6.74208 -16.52928,-3.71646 -25.75661,17.00408 -4.84912,10.889 -5.89153,14.2787 -5.89643,19.1738 -0.003,3.2705 -0.45254,7.6263 -0.99838,9.6797 -0.54583,2.0533 -1.52166,5.7733 -2.1685,8.2666 l -1.17606,4.5334 h -7.82478 c -4.30363,0 -9.86547,-0.72 -12.35966,-1.6 -2.49418,-0.88 -6.75454,-1.6106 -9.46744,-1.6235 -5.31034,-0.025 -12.54049,-2.7869 -14.96463,-5.7161 -1.33101,-1.6083 -0.68323,-3.0165 5.7882,-12.583 4.93897,-7.301 9.26811,-12.3105 13.43549,-15.5467 5.54868,-4.309 6.90469,-6.2459 13.899,-19.85277 6.81486,-13.25787 8.73601,-16.04407 15.91501,-23.08141 12.19336,-11.95271 15.2992,-19.05573 23.79981,-54.42986 5.35928,-22.3019 8.72096,-31.55035 14.74971,-40.57849 3.40727,-5.10243 3.96133,-6.61785 3.04533,-8.3294 -2.49435,-4.66075 -4.42727,-16.50564 -5.36023,-32.84734 l -0.9851,-17.2552 -21.19242,-31.81147 c -23.8936,-35.86635 -29.77305,-45.38031 -38.6193,-62.49285 l -6.19575,-11.98529 -15.32376,-0.59161 c -8.42808,-0.32539 -15.46329,-0.50589 -15.63379,-0.4011 -0.1705,0.10475 0.66711,1.8466 1.86136,3.87072 1.19426,2.02412 2.4894,6.00037 2.87808,8.83613 0.69321,5.05753 0.6577,5.14254 -1.86136,4.455 -2.79257,-0.76219 -22.03776,-3.07853 -41.5014,-4.99509 -23.01591,-2.26634 -35.80806,-5.83943 -44.40816,-12.40404 -2.67747,-2.04375 -4.98261,-3.56309 -5.12253,-3.3763 -0.13992,0.1868 -4.35171,10.41963 -9.35953,22.73963 -17.56153,43.20402 -22.56038,69.78389 -30.69284,163.2 -3.47641,39.93289 -3.80475,42.24685 -8.77847,61.86667 -4.40042,17.35824 -5.13483,31.80644 -2.03325,40 1.22142,3.22667 4.44365,8.40554 7.16051,11.50857 l 4.93974,5.642 -6.8592,-0.7028 c -11.4235,-1.1703 -16.18406,2.9164 -17.87009,15.3408 -0.59272,4.3678 -0.38518,6.669 0.81919,9.0832 1.0634,2.1316 1.78384,7.6676 2.11435,16.2471 l 0.50133,13.0138 -6.89289,1.2004 c -9.41553,1.6396 -15.98088,1.3801 -25.17944,-0.9954 z m 22.57907,-3.816 4.94888,-0.6783 -0.0614,-7.055 c -0.12589,-14.4479 -0.35527,-14.8817 -11.15619,-21.0983 l -9.58234,-5.5153 -3.03412,2.846 c -3.45669,3.2422 -8.05033,11.8774 -10.82815,20.3549 -1.83116,5.5883 -1.82799,5.8228 0.0976,7.2308 3.14814,2.302 4.90228,1.2268 6.42776,-3.9398 1.37099,-4.6433 10.13412,-17.0667 12.0384,-17.0667 2.1579,0 2.22741,3.7528 0.11757,6.3472 -8.47517,10.422 -10.86006,17.5933 -6.15237,18.5001 3.95621,0.7619 11.91667,0.7964 17.18446,0.074 z m 356.80292,-16.7681 6.78739,-2.4777 3.18535,-10.0379 c 3.53239,-11.1316 4.20301,-12.2711 6.44302,-10.9485 1.30842,0.7726 1.05419,2.6475 -1.67792,12.3743 -1.771,6.305 -2.89439,11.7893 -2.49643,12.1872 0.72267,0.7227 17.33746,-3.8831 23.90133,-6.6256 l 3.46988,-1.4498 v -9.1211 c 0,-6.5842 -0.37085,-9.122 -1.33333,-9.1241 -1.74346,0 -19.71295,-2.0306 -23.37111,-2.6359 -2.52586,-0.418 -3.66271,0.6279 -10.34293,9.5154 -7.68852,10.2289 -11.88596,17.1179 -11.88596,19.5077 0,1.6597 -0.73462,1.7765 7.32071,-1.164 z m -143.83561,-2.5536 c 0.65194,-2.2 1.45413,-6.924 1.78261,-10.4978 l 0.59726,-6.4978 -8.93249,-4.8448 c -8.14018,-4.4151 -9.17199,-4.7222 -11.63273,-3.462 -3.62994,1.8589 -11.447,10.4134 -15.86771,17.3646 -4.40374,6.9246 -3.74678,7.9416 5.50426,8.5213 l 6.6637,0.4175 3.99126,-8.1005 c 2.1952,-4.4552 4.49026,-8.1005 5.10015,-8.1005 2.40694,0 2.20982,3.5267 -0.56163,10.0476 -1.59723,3.7581 -2.58151,7.3549 -2.1873,7.9927 0.39526,0.6395 3.77591,1.1597 7.537,1.1597 h 6.82024 z m -272.87639,-5.8666 c 1.26026,-0.9984 1.82124,-4.0638 2.23296,-12.202 l 0.54984,-10.8685 -4.65687,-1.5868 c -2.56129,-0.8727 -6.76884,-3.0398 -9.3501,-4.8158 l -4.69323,-3.22899 -3.16412,4.48439 c -4.52433,6.4121 -9.41249,15.3273 -11.96251,21.8177 l -2.20022,5.6 h 4.11066 c 3.9989,0 4.12644,-0.1177 4.69109,-4.3275 0.64496,-4.8085 6.88065,-15.9392 8.92955,-15.9392 2.79161,0 2.50229,2.4322 -1.16015,9.753 -4.32143,8.638 -4.54643,9.9742 -1.93561,11.4949 2.68702,1.565 16.57505,1.4298 18.60871,-0.1812 z m 61.66391,-10.1963 c 0.0179,-8.625 5.73395,-17.4145 12.67817,-19.495 l 3.95292,-1.1844 -2.68904,-5.43353 c -2.16568,-4.37604 -2.76779,-7.41786 -3.09362,-15.62885 -0.43828,-11.04435 -0.0283,-13.83559 5.5713,-37.92862 3.16477,-13.61687 4.21556,-21.79898 7.05482,-54.93334 7.61152,-88.82677 13.53356,-121.02082 29.42264,-159.95068 4.44083,-10.88046 8.82588,-21.73638 9.74457,-24.12427 l 1.67034,-4.34161 -4.32893,-7.41215 c -2.38092,-4.07668 -6.00576,-11.48295 -8.05521,-16.45839 -3.80764,-9.24377 -14.60058,-42.01661 -14.60058,-44.33478 0,-1.14188 3.11228,-3.07479 3.76222,-2.33657 0.14129,0.16048 2.29074,7.01178 4.77655,15.22511 10.48711,34.65019 20.2106,53.19642 31.29601,59.69291 10.27015,6.0187 20.08029,8.18136 50.77334,11.19305 12.58113,1.23449 23.98113,2.52222 25.33333,2.8616 1.3522,0.33938 2.45855,0.30118 2.45855,-0.0849 0,-1.77237 -3.57034,-7.25726 -8.43462,-12.9576 -2.92726,-3.43038 -5.15855,-6.40079 -4.95843,-6.60091 0.20012,-0.20012 3.17543,0.41762 6.61179,1.37276 4.54889,1.26437 14.08035,1.98572 35.05034,2.65262 29.43249,0.93602 39.45053,2.03922 49.33092,5.43238 l 5.6,1.92318 -0.0158,-5.54255 c -0.0312,-11.00149 -6.17806,-31.57121 -13.68134,-45.78369 -3.67018,-6.95191 -4.60702,-9.61473 -3.70136,-10.52039 1.789,-1.789 3.0617,-0.55906 7.34256,7.09584 4.32796,7.73911 10.15738,23.36597 12.27186,32.89706 1.27932,5.76652 2.31148,7.29689 12.22997,18.13334 22.59452,24.68565 43.25419,42.94126 60.25705,53.24524 7.41867,4.49583 22.81833,11.39008 25.44196,11.39008 1.41592,0 5.65678,6.67568 18.12249,28.52724 11.45834,20.08571 19.3197,31.4848 27.42675,39.76919 l 5.7702,5.89643 -1.58148,44.77023 c -0.86983,24.62364 -2.0875,49.81025 -2.70596,55.97025 -2.33346,23.24215 -6.72803,42.18148 -12.84525,55.35932 -1.74276,3.7542 -3.04033,6.9193 -2.88349,7.0334 1.05191,0.7654 23.77545,2.5189 24.31844,1.8765 0.37311,-0.4414 1.71637,-5.5444 2.98503,-11.33987 2.7025,-12.34552 5.85166,-18.69089 10.40893,-20.97332 l 3.28247,-1.64397 -2.32218,-3.68936 c -9.11597,-14.48304 -11.81156,-44.79081 -6.36306,-71.54268 5.4914,-26.96249 16.08589,-89.30655 15.27783,-89.9036 -0.20293,-0.14994 -2.10007,-1.31256 -4.21588,-2.58358 -9.82944,-5.90483 -16.34332,-15.84073 -24.9009,-37.98249 -2.58052,-6.67676 -5.54615,-13.7455 -6.59029,-15.7083 -1.57594,-2.96251 -1.94386,-6.73964 -2.16586,-22.23539 -0.29551,-20.62572 -2.63916,-37.41768 -7.22812,-51.78838 -2.61752,-8.19698 -2.7078,-9.4231 -2.72096,-36.95293 l -0.0136,-28.47463 5.82375,2.57554 c 3.20307,1.41654 6.09556,2.13575 6.42777,1.59824 0.3322,-0.53753 0.6064,-8.57131 0.60932,-17.85287 0.005,-17.75754 -1.42396,-30.7778 -6.03251,-54.94367 l -2.79168,-14.63868 -6.64447,-7.76132 C 535.10416,433.17065 522.79721,422.6221 488.1406,397.404 c -17.5962,-12.80399 -18.99916,-13.21262 -48.15065,-14.02452 -30.15708,-0.83989 -52.82103,1.89844 -90.26626,10.90624 l -15.2169,3.66057 -9.84976,-2.70142 c -18.2123,-4.99494 -44.85046,-4.73479 -71.56011,0.69887 l -10.51034,2.13817 -8.66614,-2.24637 c -21.10376,-5.47036 -32.5126,-12.54619 -50.63568,-31.40458 -6.63071,-6.89973 -12.36812,-12.23268 -12.74981,-11.851 -0.38169,0.38169 -1.03567,14.95657 -1.4533,32.38861 -0.99236,41.42134 -2.8554,64.04075 -8.02359,97.41505 -1.50926,9.74621 -3.09147,18.28247 -3.51606,18.96946 -0.42458,0.68697 -1.60929,0.92774 -2.63269,0.53502 -1.36489,-0.52376 -1.68351,-1.42017 -1.19566,-3.36391 3.17506,-12.65047 8.58607,-58.72109 9.61459,-81.86098 l 0.61634,-13.86667 -2.70133,10.13333 c -2.54363,9.54174 -9.04058,24.64399 -12.60182,29.29307 -1.32258,1.72659 -1.88745,1.85726 -3.2261,0.74627 -1.42361,-1.18149 -1.05294,-2.42025 3.02022,-10.09306 8.19249,-15.43267 10.50955,-25.88649 14.58726,-65.81294 3.45286,-33.80846 3.10211,-50.07851 -1.63268,-75.73334 l -3.64194,-19.73333 -6.26927,13.33333 c -15.25509,32.44411 -16.4281,34.41385 -22.19625,37.27201 -10.12017,5.01464 -38.2676,3.95865 -44.48602,-1.66895 -1.00963,-0.91369 -4.32759,-7.73817 -7.37325,-15.1655 -6.24906,-15.23931 -9.43173,-21.72555 -9.50491,-19.37089 -0.0274,0.88 -0.98673,10.48 -2.13194,21.33333 -3.5503,33.64657 -5.27398,56.00489 -6.53755,84.8 l -1.21697,27.73334 2.72727,9.6 c 3.74988,13.19955 6.62934,26.63656 8.68604,40.53333 0.95508,6.45334 1.99904,13.09286 2.31992,14.75449 0.51585,2.67125 0.3011,2.98011 -1.85418,2.66667 -2.27477,-0.33081 -2.59115,-1.35203 -4.73628,-15.28782 -2.85915,-18.57439 -7.89798,-40.51654 -9.0265,-39.30687 -1.69469,1.81653 -4.43349,17.18333 -5.62091,31.5377 -2.13937,25.86199 1.37007,52.61627 10.43229,79.53072 4.92651,14.63156 16.99338,39.63025 24.07259,49.8707 5.81029,8.40487 27.89711,30.47608 39.44375,39.41587 l 6.86458,5.31479 -4.8,-5.84812 c -2.64,-3.21646 -8.75388,-10.04795 -13.5864,-15.18107 -9.21665,-9.78996 -14.22617,-18.16539 -18.3152,-30.62121 -2.68208,-8.17 -2.66701,-7.2045 -0.13362,-8.56033 1.90643,-1.02029 2.25933,-0.56086 3.863,5.02914 0.97069,3.38361 3.15639,8.98111 4.85711,12.43891 3.07202,6.24585 9.81209,16.17665 11.42633,16.83551 1.83622,0.74947 16.72362,17.90476 22.67231,26.12613 13.03542,18.01553 18.57425,37.79271 22.80212,81.41813 2.81506,29.04722 3.61988,33.64568 7.45805,42.61302 13.31942,31.11883 16.02111,51.96115 13.34131,102.92217 -1.60113,30.44847 -5.93417,55.44041 -13.44638,77.55561 -0.44676,1.3152 1.10486,2.6743 6.16552,5.4007 3.71938,2.0039 7.12252,3.4647 7.56252,3.2463 0.44,-0.2184 0.80268,-1.6887 0.80595,-3.2674 z m 219.87237,-19.5252 c 5.66118,-13.11496 9.09178,-18.28431 13.72384,-20.67965 3.97125,-2.05361 9.91464,-2.04144 13.91747,0.0285 2.83762,1.46739 3.14703,1.46326 3.14703,-0.042 0,-10.68153 4.78713,-37.71916 9.72056,-54.90164 6.29781,-21.93442 19.95563,-52.6127 33.17903,-74.52696 l 5.37638,-8.9099 -0.19712,-9.74199 -0.19711,-9.742 -5.25562,-6.04252 -5.25562,-6.04252 2.05322,-14.77225 c 1.12928,-8.12474 2.62238,-21.59151 3.31802,-29.92617 l 1.26479,-15.15393 -3.58194,-2.9794 c -10.35087,-8.60972 -16.82531,-14.72764 -31.71563,-29.96919 l -16.3577,-16.74354 0.65408,7.2 c 0.35974,3.96 0.31836,7.2 -0.0919,7.2 -0.41031,0 -3.82139,-1.23034 -7.58018,-2.73409 -9.39324,-3.7579 -20.9719,-5.79924 -32.89371,-5.79924 -5.52173,0 -10.0395,0.25368 -10.0395,0.56375 0,0.91403 6.29826,13.16798 11.4975,22.36958 2.65189,4.69334 15.78982,25.11672 29.1954,45.38529 l 24.37377,36.85196 v 12.54368 c 0,15.02824 1.4677,25.36489 4.9888,35.13482 l 2.61259,7.24913 -3.45306,3.93282 c -6.42366,7.31615 -11.04011,19.4703 -17.81317,46.89845 -7.74026,31.34492 -13.05093,43.86679 -20.89256,49.26196 -5.99057,4.12163 -10.41548,10.30782 -18.55893,25.94615 l -6.52881,12.5376 2.3559,1.4884 c 4.22715,2.6706 13.01171,6.8405 13.47188,6.395 0.24713,-0.2393 2.75018,-5.7653 5.56235,-12.2801 z M 127.6329,923.25283 c 2.36239,-7.09898 8.01626,-14.32295 11.20991,-14.32295 0.86045,0 1.55925,-0.12 1.55291,-0.26667 -0.006,-0.14666 -0.72636,-2.62295 -1.6,-5.50285 -5.12239,-16.88548 0.64336,-47.6566 20.98449,-111.99176 l 6.37448,-20.16127 -3.19039,-7.57207 c -4.05668,-9.62814 -3.91723,-8.88436 -6.51932,-34.77205 -3.79547,-37.76046 -6.36484,-51.8482 -12.45076,-68.26711 -2.86211,-7.72157 -2.60908,-7.45076 -18.06499,-19.33422 -0.62958,-0.48406 0.40356,4.50822 2.29587,11.09394 4.25361,14.80363 8.32321,34.43523 10.77415,51.97405 2.33727,16.72543 2.67087,67.16304 0.55734,84.26667 -4.82015,39.00703 -15.77952,85.58824 -28.65525,121.79487 -4.37066,12.29034 -4.27697,12.59611 5.32587,17.38137 8.04233,4.0077 8.71981,3.7511 11.40569,-4.31995 z m -0.38619,-605.9236 c 4.51564,-2.20535 4.41502,-2.02621 24.19049,-43.06604 10.14241,-21.04842 18.0862,-34.22108 24.08161,-39.93289 l 3.28845,-3.1329 -0.0166,-13.93377 c -0.01,-8.45256 -0.62457,-16.45138 -1.56201,-20.33377 -0.84994,-3.52 -1.56244,-6.72087 -1.58334,-7.11304 -0.0209,-0.39217 2.96767,-1.71326 6.64127,-2.93575 13.84032,-4.60576 26.53713,-15.57189 32.82561,-28.35121 6.11207,-12.4208 7.75758,-21.34746 7.86503,-42.66667 0.0999,-19.8309 -0.55168,-23.98625 -4.58304,-29.22542 l -1.96887,-2.55875 -5.74232,8.17164 c -3.15828,4.4944 -11.15247,17.64585 -17.76485,29.22542 -12.93604,22.65353 -20.69464,33.85824 -26.52319,38.3039 l -3.67243,2.8011 -3.23487,-3.09228 c -1.77921,-1.70076 -5.40857,-6.69228 -8.06526,-11.09228 -8.0526,-13.33664 -9.62785,-14.39278 -16.41615,-11.00633 -4.7824,2.38577 -11.88191,2.33931 -19.49491,-0.12757 -6.09139,-1.97381 -6.35117,-1.97439 -11.73333,-0.0257 -6.91944,2.50523 -15.00254,2.53286 -20.11708,0.0688 -2.17051,-1.04572 -4.33178,-1.66312 -4.80283,-1.37199 -0.47105,0.29112 -5.41518,6.80035 -10.98695,14.46496 -5.57178,7.66452 -10.37051,13.93037 -10.66384,13.92401 -0.29334,-0.006 -3.65334,-5.60429 -7.46667,-12.43984 C 37.25963,129.51022 7.1298702,86.52985 3.9273302,86.52985 c -1.85513,0 -5.71425,24.89814 -5.70387,36.8 0.0123,14.12903 1.83664997,21.86873 8.29703,35.20001 6.8579498,14.1517 15.6477598,22.28351 29.5820098,27.36751 l 6.09524,2.22389 -0.51623,4.4043 c -2.3145,19.74664 -2.45196,25.58523 -0.80277,34.09722 1.5417,7.95715 2.12502,9.16643 6.7727,14.04041 9.77329,10.24919 19.777,28.36176 32.02779,57.98911 7.24386,17.51856 8.20164,18.73522 16.0563,20.39601 7.7569,1.64012 26.75512,0.60368 31.51118,-1.71908 z m -29.29358,-6.7261 c -4.46441,-1.13187 -4.83488,-1.53892 -3.9469,-4.33669 0.4928,-1.55266 1.28189,-2.07797 2.4488,-1.63018 3.52563,1.35291 17.94342,1.8541 21.87894,0.76056 3.71746,-1.03296 4.13404,-0.9315 4.93685,1.20244 0.63794,1.6957 0.40364,2.60777 -0.86005,3.34804 -2.26979,1.32963 -19.93195,1.80324 -24.45764,0.65583 z m 9.38056,-19.20323 c -1.47047,-0.4473 -4.23047,-1.61837 -6.13333,-2.60238 -3.30025,-1.70663 -3.45977,-2.07514 -3.45977,-7.99288 v -6.20376 l 4.12376,-1.23551 c 5.47303,-1.63977 9.03983,-1.55791 13.5105,0.31006 3.3663,1.40653 3.69908,1.93813 3.69908,5.90916 0,2.39998 -0.96976,6.26447 -2.15501,8.58777 -2.24881,4.40802 -3.88892,4.96027 -9.58523,3.22754 z m -47.2602,-54.26174 c -2.0537,-2.1436 -2.86623,-4.10909 -2.86623,-6.93334 0,-2.16789 0.49943,-3.94163 1.10985,-3.94163 0.61043,0 2.56965,-1.07927 4.35384,-2.39838 3.05295,-2.25714 3.32429,-2.28855 4.60774,-0.53333 0.75006,1.02577 1.85083,1.86504 2.44616,1.86504 1.58536,0 2.57111,6.24994 1.34661,8.53794 -1.08934,2.03546 -6.13994,6.3954 -7.40849,6.3954 -0.39779,0 -2.01306,-1.34626 -3.58948,-2.9917 z m 84.26666,-2.13334 c -2.05369,-2.14359 -2.86622,-4.10908 -2.86622,-6.93333 0,-2.16789 0.49943,-3.94163 1.10985,-3.94163 0.61042,0 2.56965,-1.07928 4.35385,-2.39838 3.05295,-2.25714 3.32427,-2.28856 4.60773,-0.53333 0.75006,1.02577 1.85084,1.86504 2.44615,1.86504 1.58537,0 2.57112,6.24993 1.34662,8.53793 -1.08935,2.03547 -6.13994,6.3954 -7.40849,6.3954 -0.3978,0 -2.01306,-1.34626 -3.58949,-2.9917 z M 99.62126,132.99851 c 0.15437,-0.15095 -0.48285,-2.10181 -1.41605,-4.33526 C 94.65818,120.174 93.43505,109.65401 94.51279,96.90527 95.0696,90.31879 96.03945,83.24985 96.66802,81.19652 98.02084,76.7773 96.36897,50.21259 94.83663,51.74493 94.35225,52.2293 91.5013,78.57815 91.3847,83.64801 c -0.026,1.12887 -1.47059,2.52223 -3.51078,3.3862 l -3.46666,1.46804 -2.31915,-4.52022 C 76.34446,72.78719 75.86682,68.53372 75.96585,29.46318 76.01645,9.5165147 75.87325,-5.6034853 75.64774,-4.1368183 75.42222,-2.6701523 74.06085,5.6560977 72.62248,14.365959 68.51427,39.24263 69.3427,59.08737 75.83537,91.32985 c 3.46782,17.2211 9.02838,39.04383 10.37978,40.73597 1.36124,1.70447 4.86237,2.34633 9.39211,1.72182 2.05333,-0.2831 3.85963,-0.6382 4.014,-0.78913 z m 30.2995,0.43248 3.91351,-1.08698 4.83717,-19.97374 c 8.41108,-34.73127 9.63967,-43.55271 9.61538,-69.04042 -0.019,-19.925114 -0.3318,-23.932073 -2.8312,-36.2666683 l -2.80984,-13.866667 0.74741,21.3333343 c 1.44263,41.177321 0.26712,55.636001 -5.5577,68.359071 l -2.65172,5.79213 -3.66976,-1.74998 -3.66976,-1.74999 -1.38253,-17.50701 c -1.58162,-20.02799 -2.97235,-20.79365 -3.89094,-2.14212 -0.37227,7.55868 -0.11627,14.08296 0.69837,17.79866 0.70732,3.22625 1.53073,11.14591 1.82977,17.59924 0.45615,9.84373 0.17997,13.02171 -1.71493,19.73334 -3.79137,13.42889 -3.72917,12.57201 -0.95088,13.0998 1.37912,0.26199 2.74748,0.53904 3.04082,0.61565 0.29333,0.0766 2.29441,-0.34982 4.44683,-0.94765 z"
       id="path193"
       transform="translate(6.2405664,12.631278)" />
  </g>
</svg>
